<mxfile host="app.diagrams.net" modified="2020-08-19T02:49:52.799Z" agent="5.0 (Windows NT 10.0; WOW64) AppleWebKit/537.36 (KHTML, like Gecko) Chrome/84.0.4147.125 Safari/537.36" etag="GH1hqivnoBxLWpivuCe9" version="13.6.3" type="github">
  <diagram id="C5RBs43oDa-KdzZeNtuy" name="Page-1">
    <mxGraphModel dx="731" dy="403" grid="1" gridSize="10" guides="1" tooltips="1" connect="1" arrows="1" fold="1" page="1" pageScale="1" pageWidth="827" pageHeight="1169" math="0" shadow="0">
      <root>
        <mxCell id="WIyWlLk6GJQsqaUBKTNV-0" />
        <mxCell id="WIyWlLk6GJQsqaUBKTNV-1" parent="WIyWlLk6GJQsqaUBKTNV-0" />
        <mxCell id="tMa3PaVL580wW9yIw_xK-1" style="edgeStyle=orthogonalEdgeStyle;rounded=0;orthogonalLoop=1;jettySize=auto;html=1;exitX=0.5;exitY=1;exitDx=0;exitDy=0;" edge="1" parent="WIyWlLk6GJQsqaUBKTNV-1" source="WIyWlLk6GJQsqaUBKTNV-3" target="tMa3PaVL580wW9yIw_xK-0">
          <mxGeometry relative="1" as="geometry" />
        </mxCell>
        <mxCell id="WIyWlLk6GJQsqaUBKTNV-3" value="&lt;font style=&quot;font-size: 14px&quot;&gt;开始&lt;/font&gt;" style="rounded=1;whiteSpace=wrap;html=1;fontSize=12;glass=0;strokeWidth=1;shadow=0;" parent="WIyWlLk6GJQsqaUBKTNV-1" vertex="1">
          <mxGeometry x="170" y="40" width="200" height="30" as="geometry" />
        </mxCell>
        <mxCell id="tMa3PaVL580wW9yIw_xK-13" style="edgeStyle=orthogonalEdgeStyle;rounded=0;orthogonalLoop=1;jettySize=auto;html=1;exitX=0.5;exitY=1;exitDx=0;exitDy=0;entryX=0.5;entryY=0;entryDx=0;entryDy=0;" edge="1" parent="WIyWlLk6GJQsqaUBKTNV-1" source="tMa3PaVL580wW9yIw_xK-0" target="tMa3PaVL580wW9yIw_xK-12">
          <mxGeometry relative="1" as="geometry" />
        </mxCell>
        <mxCell id="tMa3PaVL580wW9yIw_xK-0" value="&lt;font style=&quot;font-size: 14px&quot;&gt;获取加密文件存放目录&lt;span lang=&quot;EN-US&quot; style=&quot;line-height: 21px&quot;&gt;storage_path&lt;br&gt;和解密文件存放目录&lt;/span&gt;&lt;span lang=&quot;EN-US&quot; style=&quot;line-height: 21px&quot;&gt;recovery_path&lt;/span&gt;&lt;/font&gt;" style="shape=parallelogram;perimeter=parallelogramPerimeter;whiteSpace=wrap;html=1;fixedSize=1;" vertex="1" parent="WIyWlLk6GJQsqaUBKTNV-1">
          <mxGeometry x="135" y="100" width="270" height="50" as="geometry" />
        </mxCell>
        <mxCell id="tMa3PaVL580wW9yIw_xK-41" style="edgeStyle=orthogonalEdgeStyle;rounded=0;orthogonalLoop=1;jettySize=auto;html=1;entryX=0.5;entryY=0;entryDx=0;entryDy=0;exitX=0.5;exitY=0.924;exitDx=0;exitDy=0;exitPerimeter=0;" edge="1" parent="WIyWlLk6GJQsqaUBKTNV-1" source="tMa3PaVL580wW9yIw_xK-12" target="tMa3PaVL580wW9yIw_xK-14">
          <mxGeometry relative="1" as="geometry" />
        </mxCell>
        <mxCell id="tMa3PaVL580wW9yIw_xK-12" value="&lt;font style=&quot;font-size: 14px&quot;&gt;&lt;font&gt;打开索引文件[storage_path]/&lt;/font&gt;&lt;span lang=&quot;EN-US&quot; style=&quot;line-height: 150%&quot;&gt;dirf.db&lt;/span&gt;&lt;/font&gt;" style="shape=document;whiteSpace=wrap;html=1;boundedLbl=1;" vertex="1" parent="WIyWlLk6GJQsqaUBKTNV-1">
          <mxGeometry x="120" y="180" width="300" height="60" as="geometry" />
        </mxCell>
        <mxCell id="tMa3PaVL580wW9yIw_xK-19" style="edgeStyle=orthogonalEdgeStyle;rounded=0;orthogonalLoop=1;jettySize=auto;html=1;exitX=0.5;exitY=1;exitDx=0;exitDy=0;entryX=0.5;entryY=0;entryDx=0;entryDy=0;" edge="1" parent="WIyWlLk6GJQsqaUBKTNV-1" source="tMa3PaVL580wW9yIw_xK-14" target="tMa3PaVL580wW9yIw_xK-18">
          <mxGeometry relative="1" as="geometry" />
        </mxCell>
        <mxCell id="tMa3PaVL580wW9yIw_xK-14" value="&lt;font style=&quot;font-size: 14px&quot;&gt;解密索引文件，获取数据块列表dirf_blocks&lt;/font&gt;" style="rounded=0;whiteSpace=wrap;html=1;" vertex="1" parent="WIyWlLk6GJQsqaUBKTNV-1">
          <mxGeometry x="125" y="260" width="290" height="60" as="geometry" />
        </mxCell>
        <mxCell id="tMa3PaVL580wW9yIw_xK-21" style="edgeStyle=orthogonalEdgeStyle;rounded=0;orthogonalLoop=1;jettySize=auto;html=1;exitX=0.5;exitY=1;exitDx=0;exitDy=0;entryX=0.5;entryY=0;entryDx=0;entryDy=0;" edge="1" parent="WIyWlLk6GJQsqaUBKTNV-1" source="tMa3PaVL580wW9yIw_xK-18" target="tMa3PaVL580wW9yIw_xK-20">
          <mxGeometry relative="1" as="geometry" />
        </mxCell>
        <mxCell id="tMa3PaVL580wW9yIw_xK-18" value="&lt;font style=&quot;font-size: 14px&quot;&gt;解析dirf_blocks，获取索引数据列表dirfile_entrys&lt;/font&gt;" style="rounded=0;whiteSpace=wrap;html=1;" vertex="1" parent="WIyWlLk6GJQsqaUBKTNV-1">
          <mxGeometry x="125" y="360" width="290" height="60" as="geometry" />
        </mxCell>
        <mxCell id="tMa3PaVL580wW9yIw_xK-24" style="edgeStyle=orthogonalEdgeStyle;rounded=0;orthogonalLoop=1;jettySize=auto;html=1;exitX=0;exitY=0.5;exitDx=0;exitDy=0;entryX=0;entryY=0.5;entryDx=0;entryDy=0;" edge="1" parent="WIyWlLk6GJQsqaUBKTNV-1" source="tMa3PaVL580wW9yIw_xK-20" target="tMa3PaVL580wW9yIw_xK-22">
          <mxGeometry relative="1" as="geometry">
            <Array as="points">
              <mxPoint x="120" y="500" />
              <mxPoint x="120" y="830" />
              <mxPoint x="200" y="830" />
            </Array>
          </mxGeometry>
        </mxCell>
        <mxCell id="tMa3PaVL580wW9yIw_xK-25" value="&lt;font style=&quot;font-size: 14px&quot;&gt;是&lt;/font&gt;" style="edgeLabel;html=1;align=center;verticalAlign=middle;resizable=0;points=[];" vertex="1" connectable="0" parent="tMa3PaVL580wW9yIw_xK-24">
          <mxGeometry x="-0.3912" y="-2" relative="1" as="geometry">
            <mxPoint y="73" as="offset" />
          </mxGeometry>
        </mxCell>
        <mxCell id="tMa3PaVL580wW9yIw_xK-27" style="edgeStyle=orthogonalEdgeStyle;rounded=0;orthogonalLoop=1;jettySize=auto;html=1;exitX=0.5;exitY=1;exitDx=0;exitDy=0;entryX=0.5;entryY=0;entryDx=0;entryDy=0;" edge="1" parent="WIyWlLk6GJQsqaUBKTNV-1" source="tMa3PaVL580wW9yIw_xK-20" target="tMa3PaVL580wW9yIw_xK-26">
          <mxGeometry relative="1" as="geometry" />
        </mxCell>
        <mxCell id="tMa3PaVL580wW9yIw_xK-30" value="&lt;span style=&quot;font-size: 14px&quot;&gt;否&lt;/span&gt;" style="edgeLabel;html=1;align=center;verticalAlign=middle;resizable=0;points=[];" vertex="1" connectable="0" parent="tMa3PaVL580wW9yIw_xK-27">
          <mxGeometry x="-0.4443" y="2" relative="1" as="geometry">
            <mxPoint x="-2" as="offset" />
          </mxGeometry>
        </mxCell>
        <mxCell id="tMa3PaVL580wW9yIw_xK-20" value="&lt;font style=&quot;font-size: 14px&quot;&gt;是否已遍历完&lt;br&gt;dirfile_entrys列表&lt;/font&gt;" style="rhombus;whiteSpace=wrap;html=1;" vertex="1" parent="WIyWlLk6GJQsqaUBKTNV-1">
          <mxGeometry x="170" y="460" width="200" height="80" as="geometry" />
        </mxCell>
        <mxCell id="tMa3PaVL580wW9yIw_xK-22" value="结束" style="rounded=1;whiteSpace=wrap;html=1;" vertex="1" parent="WIyWlLk6GJQsqaUBKTNV-1">
          <mxGeometry x="210" y="800" width="120" height="60" as="geometry" />
        </mxCell>
        <mxCell id="tMa3PaVL580wW9yIw_xK-33" style="edgeStyle=orthogonalEdgeStyle;rounded=0;orthogonalLoop=1;jettySize=auto;html=1;exitX=0.5;exitY=1;exitDx=0;exitDy=0;entryX=0.5;entryY=0;entryDx=0;entryDy=0;" edge="1" parent="WIyWlLk6GJQsqaUBKTNV-1" source="tMa3PaVL580wW9yIw_xK-26" target="tMa3PaVL580wW9yIw_xK-31">
          <mxGeometry relative="1" as="geometry" />
        </mxCell>
        <mxCell id="tMa3PaVL580wW9yIw_xK-26" value="&lt;font style=&quot;font-size: 14px&quot;&gt;从dirfile_entrys[i]中获取uuid,file_number,obj_id&lt;/font&gt;" style="rounded=0;whiteSpace=wrap;html=1;" vertex="1" parent="WIyWlLk6GJQsqaUBKTNV-1">
          <mxGeometry x="170" y="585" width="200" height="60" as="geometry" />
        </mxCell>
        <mxCell id="tMa3PaVL580wW9yIw_xK-35" style="edgeStyle=orthogonalEdgeStyle;rounded=0;orthogonalLoop=1;jettySize=auto;html=1;exitX=1;exitY=0.5;exitDx=0;exitDy=0;entryX=0;entryY=0.5;entryDx=0;entryDy=0;" edge="1" parent="WIyWlLk6GJQsqaUBKTNV-1" source="tMa3PaVL580wW9yIw_xK-31" target="tMa3PaVL580wW9yIw_xK-34">
          <mxGeometry relative="1" as="geometry" />
        </mxCell>
        <mxCell id="tMa3PaVL580wW9yIw_xK-31" value="&lt;font style=&quot;font-size: 14px&quot;&gt;&lt;font&gt;打开数据文件[storage_path]/[&lt;/font&gt;&lt;/font&gt;&lt;span style=&quot;font-size: 14px&quot;&gt;file_number]&lt;/span&gt;" style="shape=document;whiteSpace=wrap;html=1;boundedLbl=1;" vertex="1" parent="WIyWlLk6GJQsqaUBKTNV-1">
          <mxGeometry x="170" y="690" width="200" height="60" as="geometry" />
        </mxCell>
        <mxCell id="tMa3PaVL580wW9yIw_xK-39" style="edgeStyle=orthogonalEdgeStyle;rounded=0;orthogonalLoop=1;jettySize=auto;html=1;exitX=0.5;exitY=0;exitDx=0;exitDy=0;entryX=0.5;entryY=0.883;entryDx=0;entryDy=0;entryPerimeter=0;" edge="1" parent="WIyWlLk6GJQsqaUBKTNV-1" source="tMa3PaVL580wW9yIw_xK-34" target="tMa3PaVL580wW9yIw_xK-37">
          <mxGeometry relative="1" as="geometry" />
        </mxCell>
        <mxCell id="tMa3PaVL580wW9yIw_xK-34" value="&lt;font style=&quot;font-size: 14px&quot;&gt;解密数据文件，&lt;br&gt;获取数据块列表data_blocks&lt;/font&gt;" style="rounded=0;whiteSpace=wrap;html=1;" vertex="1" parent="WIyWlLk6GJQsqaUBKTNV-1">
          <mxGeometry x="405" y="690" width="215" height="60" as="geometry" />
        </mxCell>
        <mxCell id="tMa3PaVL580wW9yIw_xK-40" style="edgeStyle=orthogonalEdgeStyle;rounded=0;orthogonalLoop=1;jettySize=auto;html=1;exitX=0.5;exitY=0;exitDx=0;exitDy=0;entryX=1;entryY=0.5;entryDx=0;entryDy=0;" edge="1" parent="WIyWlLk6GJQsqaUBKTNV-1" source="tMa3PaVL580wW9yIw_xK-37" target="tMa3PaVL580wW9yIw_xK-20">
          <mxGeometry relative="1" as="geometry" />
        </mxCell>
        <mxCell id="tMa3PaVL580wW9yIw_xK-37" value="&lt;font style=&quot;font-size: 14px&quot;&gt;&lt;font&gt;保存data_blocks数据到恢复文件[recovery_path]/[uuid]/[obj_id]&lt;/font&gt;&lt;/font&gt;" style="shape=document;whiteSpace=wrap;html=1;boundedLbl=1;" vertex="1" parent="WIyWlLk6GJQsqaUBKTNV-1">
          <mxGeometry x="397.5" y="585" width="230" height="60" as="geometry" />
        </mxCell>
      </root>
    </mxGraphModel>
  </diagram>
</mxfile>
